<?xml version="1.0" encoding="UTF-8"?>
<svg id="Layer_2" data-name="Layer 2" xmlns="http://www.w3.org/2000/svg" viewBox="0 0 550 144.62">
  <g id="Layer_2-2" data-name="Layer 2">
    <g>
      <rect width="550" height="144.62" style="fill: #0975b9;"/>
      <g>
        <path d="m60.58,0h29.41l3.33,66.8c.63,14.3,1.25,28.92,1.47,43.47h.82c6.2-14.47,12.38-29.07,18.66-43.47L144.17,0h30.84l-69.03,135.68h-34.02L60.58,0Z" style="fill: #fff;"/>
        <path d="m221.64,30.12c0-15.28,10.96-25.68,25.68-25.68s25.68,10.4,25.68,25.68-10.96,25.68-25.68,25.68-25.68-10.71-25.68-25.68Z" style="fill: #e8252e;"/>
        <g>
          <path d="m145.7,88.85c0-17.13,11.77-27.68,24.13-27.68,13.69,0,21.42,9.64,21.42,24.69,0,1.88-.16,3.76-.42,5.06h-36.15c.65,11.15,7.6,18.38,17.83,18.38,5.15,0,9.38-1.63,13.36-4.21l3.25,5.84c-4.71,3.02-10.42,5.46-17.72,5.46-14.31,0-25.7-10.26-25.7-27.54Zm37.52-4.31c0-10.55-4.84-16.28-13.23-16.28-7.55,0-14.29,5.94-15.39,16.28h28.63Z" style="fill: #fff;"/>
          <path d="m204.45,62.47h7.5l.77,9.58h.3c3.74-6.68,9.22-10.88,15.26-10.88,2.38,0,4.04.3,5.73,1.08l-1.7,7.81c-1.85-.57-3.06-.87-5.21-.87-4.53,0-9.95,3.2-13.58,12.1v33.79h-9.08v-52.63Z" style="fill: #fff;"/>
          <rect x="242.77" y="62.47" width="9.08" height="52.63" style="fill: #fff;"/>
          <path d="m263.98,109.09l4.48-5.87c4.66,3.68,9.4,6.23,15.85,6.23,7.05,0,10.55-3.68,10.55-8.17,0-5.42-6.34-7.81-12.28-9.97-7.52-2.7-16.01-6.32-16.01-15.2,0-8.42,6.88-14.94,18.52-14.94,6.68,0,12.53,2.68,16.69,5.91l-4.34,5.71c-3.7-2.68-7.49-4.68-12.24-4.68-6.76,0-9.88,3.53-9.88,7.55,0,5,5.84,6.91,11.92,9.13,7.74,2.86,16.37,5.95,16.37,15.97,0,8.53-6.92,15.64-19.58,15.64-7.63,0-14.98-3.17-20.03-7.3Z" style="fill: #fff;"/>
          <path d="m312.21,88.85c0-17.13,11.77-27.68,24.13-27.68,13.69,0,21.42,9.64,21.42,24.69,0,1.88-.16,3.76-.42,5.06h-36.15c.65,11.15,7.6,18.38,17.83,18.38,5.15,0,9.38-1.63,13.36-4.21l3.25,5.84c-4.71,3.02-10.42,5.46-17.73,5.46-14.31,0-25.7-10.26-25.7-27.54Zm37.52-4.31c0-10.55-4.84-16.28-13.23-16.28-7.55,0-14.29,5.94-15.39,16.28h28.63Z" style="fill: #fff;"/>
          <path d="m371.45,98.82v-29.1h-7.99v-6.74l8.39-.51,1.09-14.76h7.58v14.76h14.54v7.25h-14.54v29.25c0,6.43,2.11,10.16,8.3,10.16,1.91,0,4.37-.71,6.11-1.41l1.75,6.72c-3.01,1-6.61,1.95-9.96,1.95-11.42,0-15.29-7.1-15.29-17.57Z" style="fill: #fff;"/>
          <path d="m406.56,98.82v-29.1h-7.99v-6.74l8.39-.51,1.09-14.76h7.58v14.76h14.54v7.25h-14.54v29.25c0,6.43,2.11,10.16,8.3,10.16,1.91,0,4.37-.71,6.11-1.41l1.75,6.72c-3.01,1-6.61,1.95-9.96,1.95-11.42,0-15.29-7.1-15.29-17.57Z" style="fill: #fff;"/>
          <path d="m436.76,88.85c0-17.13,11.77-27.68,24.13-27.68,13.69,0,21.42,9.64,21.42,24.69,0,1.88-.16,3.76-.42,5.06h-36.15c.65,11.15,7.6,18.38,17.83,18.38,5.15,0,9.38-1.63,13.36-4.21l3.25,5.84c-4.71,3.02-10.42,5.46-17.73,5.46-14.31,0-25.7-10.26-25.7-27.54Zm37.52-4.31c0-10.55-4.84-16.28-13.23-16.28-7.55,0-14.29,5.94-15.39,16.28h28.63Z" style="fill: #fff;"/>
        </g>
      </g>
    </g>
  </g>
</svg>